<svg width="15" height="15" viewBox="0 0 15 15" fill="none" xmlns="http://www.w3.org/2000/svg">
<path d="M11.7182 6.06848V5.62811C11.7182 3.21014 9.82963 1.25 7.5 1.25C5.17035 1.25 3.28179 3.21014 3.28179 5.62811V6.06848C3.28179 6.597 3.13108 7.11362 2.84863 7.55337L2.15648 8.63094C1.52426 9.61519 2.00691 10.9531 3.10648 11.2643C5.98296 12.0786 9.01706 12.0786 11.8935 11.2643C12.9931 10.9531 13.4758 9.61519 12.8435 8.63094L12.1514 7.55337C11.8689 7.11362 11.7182 6.597 11.7182 6.06848Z" stroke="#22346E" stroke-width="1.5"/>
<path d="M4.6875 11.875C5.09689 12.9674 6.20154 13.75 7.5 13.75C8.79844 13.75 9.90313 12.9674 10.3125 11.875" stroke="#22346E" stroke-width="1.5" stroke-linecap="round"/>
</svg>
