<svg width="15" height="15" viewBox="0 0 15 15" fill="none" xmlns="http://www.w3.org/2000/svg">
<path d="M11.1794 12.5528C10.9807 11.0463 10.2426 10 7.5 10C4.75741 10 4.01926 11.0462 3.82059 12.5527M11.1794 12.5528C12.7375 11.4162 13.75 9.57631 13.75 7.5C13.75 4.04822 10.9517 1.25 7.5 1.25C4.04822 1.25 1.25 4.04822 1.25 7.5C1.25 9.57631 2.26245 11.4161 3.82059 12.5527M11.1794 12.5528C10.1471 13.3057 8.87544 13.75 7.5 13.75C6.12452 13.75 4.85281 13.3057 3.82059 12.5527M9.375 6.25C9.375 7.28556 8.53556 8.125 7.5 8.125C6.46444 8.125 5.625 7.28556 5.625 6.25C5.625 5.21447 6.46444 4.375 7.5 4.375C8.53556 4.375 9.375 5.21447 9.375 6.25Z" stroke="#22346E" stroke-width="1.5" stroke-linecap="round"/>
</svg>
